<?xml version="1.0" encoding="utf-8"?>
<!-- Generator: Adobe Illustrator 15.1.0, SVG Export Plug-In . SVG Version: 6.00 Build 0)  -->
<!DOCTYPE svg PUBLIC "-//W3C//DTD SVG 1.1//EN" "http://www.w3.org/Graphics/SVG/1.1/DTD/svg11.dtd">
<svg version="1.1" id="Layer_1" xmlns="http://www.w3.org/2000/svg" xmlns:xlink="http://www.w3.org/1999/xlink" x="0px" y="0px"
	 width="300px" height="68px" viewBox="0 0 300 68" enable-background="new 0 0 300 68" xml:space="preserve">
<path fill="#E1BBEA" d="M65.167,20.167c0,0-8.667,33.288,0,36.977s30.667,9.69,33.667,2.023s4-30.334,1.667-34s-14-8.333-17-7.667
	S65.167,20.167,65.167,20.167z"/>
<path fill="#E1BBEA" d="M149.604,10.529c0,0-2.047,1.129-1.918,3.968s2.884,48.731,8.147,50.628s6.074,0.233,15.001,0
	s17-2.75,21.875-3.125s12.5-1.625,13.875-2.125s1.75-32.375,1.125-36.625s-2.375-15.375-3.625-17.375s-2.125-3.875-5-4
	s-46.5,5.625-47.75,6.375S149.604,10.529,149.604,10.529"/>
<path fill="#E1BBEA" d="M5.145,10.529c0,0-2.047,1.129-1.918,3.968s2.884,48.731,8.147,50.628s6.074,0.233,15.001,0
	s17-2.75,21.875-3.125s12.5-1.625,13.875-2.125S63.875,27.5,63.25,23.25S60.875,7.875,59.625,5.875s-2.125-3.875-5-4
	S8.125,7.5,6.875,8.25S5.145,10.529,5.145,10.529"/>
<path fill="#E1BBEA" d="M117.167,18.833c0,0-20.033,31.405-4,38.286s33.694,4.001,34.514,0.024s0.486-37.643-1.847-38.31
	S117.167,18.833,117.167,18.833z"/>
<path fill="#E1BBEA" d="M209.5,18.537c0,0-7.666,35.583,1.334,38.606s32.333,10.928,34.333-0.024S248.834,34.5,246.834,29
	s-20-11.628-23-11.564S209.5,18.537,209.5,18.537z"/>
<path fill="#E1BBEA" d="M260.5,21.167c0,0-9,36.667,0,38s27.333,4.287,30-2.023s4-29.644,1.667-32.977s-27.333-5.592-28.333-5.629
	S260.5,21.167,260.5,21.167z"/>
<g transform="translate(0.000000,68.000000) scale(0.100000,-0.100000)">
	<path fill="#590E5B" d="M260,640c-107.998-15-205-32.002-217.002-37.998C1.001,578.999,1.001,558.999,40,274.004
		C57.002,149.004,76.001,47.002,83.999,35c8.003-12.998,27.002-24.004,43.003-27.002c15-2.002,120,9.004,232.998,24.004
		c163.999,22.002,212.998,25.996,245,17.002c23.999-6.006,116.001-9.004,223.999-7.002C1005,45,1012.002,45.996,1030,67.998
		c15,17.998,20,20,27.002,9.004C1075,45,1108.999,40,1292.002,40c128.999,0,190,4.004,207.998,12.998
		c22.998,12.002,25.996,11.006,42.002-13.994c10-16.006,27.998-28.008,45-31.006c15-2.002,117.998,9.004,227.998,24.004
		c167.002,23.994,207.998,25.996,250,17.002c29.004-6.006,124.004-9.004,227.998-7.002C2465,45,2472.998,45.996,2490,67.998
		c15,17.998,20,20,27.002,9.004C2535,45,2570,40,2749.004,40c183.994,0,225.996,7.002,235,39.004
		c2.998,8.994,5.996,103.994,7.998,212.998c2.002,180.996,0.996,197.998-16.006,216.997c-17.998,20-28.994,21.001-226.992,21.001
		h-208.008l-20-26.001c-15-18.999-20.996-21.997-20.996-11.001c0,9.004-5.996,19.004-12.002,24.004
		c-7.002,3.999-100.996,10-207.998,12.998l-194.004,5l-7.998,43.999c-3.994,23.999-13.994,53.999-22.998,67.002
		c-20.996,31.997-55,31.001-322.998-5c-221.006-30-258.003-42.002-264.004-83.003C1465,535,1463.999,535,1275,532.002
		c-181.001-2.002-191.001-3.003-207.998-24.004c-17.002-20-18.003-20.996-31.001-1.997C1022.998,522.998,1002.998,525,823.999,530
		l-197.998,5l-8.003,43.999c-3.999,23.999-13.999,53.999-22.998,67.002c-13.999,21.001-22.998,23.999-77.998,22.998
		C482.998,667.998,367.002,655,260,640z M573.999,635c8.003-7.998,18.003-36.001,22.002-61.001c5-36.997,2.998-46.997-12.002-58.999
		C566.001,502.998,565,485,565,292.002v-210L370,55.996C262.998,40.996,162.998,30,148.999,30c-50,0-56.001,20-91.001,277.998
		C26.001,550,26.001,551.001,46.001,570c16.001,17.002,57.998,26.001,228.999,48.999C522.998,652.998,553.999,655,573.999,635z
		 M2032.998,632.002c9.004-10,19.004-37.002,22.998-60c5-35,3.008-45-11.992-57.002C2025.996,502.998,2025,486.001,2025,290.996
		C2025,175,2022.998,80,2020,80s-95.996-12.002-205.996-25.996C1607.002,25.996,1567.002,27.002,1555,57.002
		c-7.002,20-65,441.997-65,476.997c0,46.001,25.996,55,245.996,86.001C1990.996,653.999,2012.002,655,2032.998,632.002z
		 M891.001,447.002c67.998-44.004,98.999-160,65-240c-18.003-42.998-78.003-95-118.999-102.002
		C658.999,70.996,565,343.999,720,447.002C766.001,478.999,843.999,478.999,891.001,447.002z M1367.002,452.998
		c30.996-13.999,72.998-63.999,72.998-85.996c0-4.004-16.001-15-35-24.004c-33.999-15.996-35-15.996-55,10
		c-26.001,32.002-50,40-82.998,28.003c-58.003-22.002-73.003-118.003-26.001-166.997c31.997-34.004,71.001-31.006,102.998,5.996
		l25,30l35-17.002c43.003-20,43.999-32.002,11.001-72.002c-73.999-86.992-213.999-71.992-265,28.008
		c-22.002,45-27.002,130.996-8.999,177.998C1152.998,400,1197.002,448.999,1225,460C1258.999,473.999,1330,471.001,1367.002,452.998
		z M2350.996,447.002c95-63.003,106.006-222.002,20-300C2257.998,45,2100,130.996,2100,294.004
		c0,54.995,35.996,124.995,79.004,152.998C2225.996,478.999,2304.004,478.999,2350.996,447.002z M2827.002,452.998
		c30.996-13.999,72.998-63.999,72.998-85.996c0-4.004-15.996-15-34.004-24.004c-35-15.996-35-15.996-63.994,15
		c-32.998,35-39.004,37.002-76.006,22.002c-56.992-21.001-70.996-117.002-25-165.996c32.002-34.004,71.006-31.006,103.008,5.996
		l25,30l35-17.002c45-20.996,45-35.996,2.998-77.998c-44.004-44.004-104.004-62.002-156.006-47.002
		C2627.002,134.004,2590,190,2590,292.002c0,82.998,34.004,140.996,100,170C2717.998,475,2792.002,470,2827.002,452.998z"/>
	<path fill="#54067A" d="M286.001,563.999c-93.003-12.998-170-25-172.002-26.001C112.998,536.001,115,510,117.998,480L125,425
		l43.999,1.001c28.999,1.001,46.001,6.001,53.003,16.997c5,10,18.999,17.002,31.997,17.002c21.001,0,23.003-7.002,38.999-127.002
		c10-80,13.003-128.994,7.002-130.996S290,182.998,290,165c0-60,2.998-62.002,81.001-50.996l71.001,8.994l-5,45
		c-3.003,24.004-11.001,47.998-18.003,52.998c-13.999,8.008-51.001,235.005-41.997,252.002c6.997,11.001,50.996,8.003,55-3.999
		c2.998-7.998,18.999-10,50.996-5C525,470,530,473.999,526.001,492.998c-3.003,12.002-8.003,39.004-11.001,60
		C507.998,597.002,521.001,597.002,286.001,563.999z"/>
	<path fill="#54067A" d="M1745.996,563.999c-92.998-12.998-170-25-171.992-26.001c-2.002-1.997,0-28.999,2.998-60.996
		c5-53.003,7.002-57.002,32.002-57.002C1650,420,1680,431.001,1680,446.001C1680,455,1690.996,460,1707.998,460h29.004l15-122.002
		c8.994-70,12.002-127.002,7.002-132.998c-10-10-12.002-65-4.004-87.002c5-10.996,19.004-12.002,75-5
		c65.996,9.004,70,11.006,70,36.006c0,40-10.996,70.996-25,70.996c-7.998,0-15.996,39.004-25.996,117.998
		C1840.996,402.002,1835,460,1835,465c0,15,45.996,18.999,55,5c5-7.998,22.002-8.999,52.002-5
		c48.994,7.002,47.002,1.001,32.998,87.998C1967.998,597.002,1980.996,597.002,1745.996,563.999z"/>
	<path fill="#590E5B" d="M758.999,361.001C702.002,302.998,732.002,190,805,190c83.999,0,107.002,152.998,27.998,188.999
		C797.998,395,792.002,392.998,758.999,361.001z"/>
	<path fill="#590E5B" d="M2220.996,363.999c-26.992-21.997-30.996-31.997-30.996-74.995c0-40,5-55,25-74.004
		c30.996-32.002,69.004-32.002,100,0c20,19.004,25,34.004,25,74.004c0,42.998-4.004,52.998-30.996,74.995
		C2292.002,377.998,2272.002,390,2265,390S2237.998,377.998,2220.996,363.999z"/>
</g>
</svg>
